<mxfile host="app.diagrams.net" agent="Mozilla/5.0 (Windows NT 10.0; Win64; x64) AppleWebKit/537.36 (KHTML, like Gecko) Chrome/131.0.0.0 Safari/537.36 Edg/131.0.0.0" version="26.0.4">
  <diagram id="C5RBs43oDa-KdzZeNtuy" name="Page-1">
    <mxGraphModel dx="2549" dy="973" grid="1" gridSize="10" guides="1" tooltips="1" connect="1" arrows="1" fold="1" page="1" pageScale="1" pageWidth="827" pageHeight="1169" math="0" shadow="0">
      <root>
        <mxCell id="WIyWlLk6GJQsqaUBKTNV-0" />
        <mxCell id="WIyWlLk6GJQsqaUBKTNV-1" parent="WIyWlLk6GJQsqaUBKTNV-0" />
        <mxCell id="WIyWlLk6GJQsqaUBKTNV-3" value="HTML" style="rounded=1;whiteSpace=wrap;html=1;fontSize=12;glass=0;strokeWidth=1;shadow=0;" parent="WIyWlLk6GJQsqaUBKTNV-1" vertex="1">
          <mxGeometry x="160" y="80" width="120" height="40" as="geometry" />
        </mxCell>
        <mxCell id="tXAnvfTIk08DneQXC5Ik-0" value="&lt;h2&gt;HTML&lt;/h2&gt;" style="rounded=1;whiteSpace=wrap;html=1;fontSize=12;glass=0;strokeWidth=1;shadow=0;" vertex="1" parent="WIyWlLk6GJQsqaUBKTNV-1">
          <mxGeometry x="160" y="80" width="120" height="40" as="geometry" />
        </mxCell>
        <mxCell id="tXAnvfTIk08DneQXC5Ik-2" value="&lt;h2&gt;CCS&lt;/h2&gt;" style="rounded=1;whiteSpace=wrap;html=1;fontSize=12;glass=0;strokeWidth=1;shadow=0;" vertex="1" parent="WIyWlLk6GJQsqaUBKTNV-1">
          <mxGeometry x="690" y="80" width="120" height="40" as="geometry" />
        </mxCell>
        <mxCell id="tXAnvfTIk08DneQXC5Ik-12" value="" style="html=1;shadow=0;dashed=0;align=center;verticalAlign=middle;shape=mxgraph.arrows2.arrow;dy=0.67;dx=20;notch=0;" vertex="1" parent="WIyWlLk6GJQsqaUBKTNV-1">
          <mxGeometry x="290" y="70" width="370" height="60" as="geometry" />
        </mxCell>
        <mxCell id="tXAnvfTIk08DneQXC5Ik-13" value="" style="html=1;shadow=0;dashed=0;align=center;verticalAlign=middle;shape=mxgraph.arrows2.arrow;dy=0.6;dx=40;direction=south;notch=0;" vertex="1" parent="WIyWlLk6GJQsqaUBKTNV-1">
          <mxGeometry x="185" y="120" width="70" height="100" as="geometry" />
        </mxCell>
        <mxCell id="tXAnvfTIk08DneQXC5Ik-14" value="&lt;div&gt;&lt;br&gt;&lt;/div&gt;&lt;div&gt;&lt;br&gt;&lt;/div&gt;&lt;div&gt;### 1. **Основы CSS**&lt;/div&gt;&lt;div&gt;&amp;nbsp; &amp;nbsp;- **Синтаксис**: CSS состоит из селекторов и объявлений. Объявления включают свойства и значения.&lt;/div&gt;&lt;div&gt;&amp;nbsp; &amp;nbsp; &amp;nbsp;```css&lt;/div&gt;&lt;div&gt;&amp;nbsp; &amp;nbsp; &amp;nbsp;селектор {&lt;/div&gt;&lt;div&gt;&amp;nbsp; &amp;nbsp; &amp;nbsp; &amp;nbsp; &amp;nbsp;свойство: значение;&lt;/div&gt;&lt;div&gt;&amp;nbsp; &amp;nbsp; &amp;nbsp;}&lt;/div&gt;&lt;div&gt;&amp;nbsp; &amp;nbsp; &amp;nbsp;```&lt;/div&gt;&lt;div&gt;&amp;nbsp; &amp;nbsp;- **Подключение CSS**: Внешние стили (`&amp;lt;link rel=&quot;stylesheet&quot; href=&quot;styles.css&quot;&amp;gt;`), внутренние стили (`&amp;lt;style&amp;gt;` внутри `&amp;lt;head&amp;gt;`), встроенные стили (`style` атрибут в HTML-элементах).&lt;/div&gt;&lt;div&gt;&lt;br&gt;&lt;/div&gt;&lt;div&gt;### 2. **Селекторы**&lt;/div&gt;&lt;div&gt;&amp;nbsp; &amp;nbsp;- **Типы селекторов**:&lt;/div&gt;&lt;div&gt;&amp;nbsp; &amp;nbsp; &amp;nbsp;- **Элементные селекторы**: `p { color: blue; }`&lt;/div&gt;&lt;div&gt;&amp;nbsp; &amp;nbsp; &amp;nbsp;- **Классы**: `.classname { color: red; }`&lt;/div&gt;&lt;div&gt;&amp;nbsp; &amp;nbsp; &amp;nbsp;- **ID**: `#idname { color: green; }`&lt;/div&gt;&lt;div&gt;&amp;nbsp; &amp;nbsp; &amp;nbsp;- **Атрибутные селекторы**: `[type=&quot;text&quot;] { border: 1px solid black; }`&lt;/div&gt;&lt;div&gt;&amp;nbsp; &amp;nbsp; &amp;nbsp;- **Псевдоклассы**: `:hover`, `:focus`, `:nth-child()`&lt;/div&gt;&lt;div&gt;&amp;nbsp; &amp;nbsp; &amp;nbsp;- **Псевдоэлементы**: `::before`, `::after`, `::first-line`&lt;/div&gt;&lt;div&gt;&lt;br&gt;&lt;/div&gt;&lt;div&gt;### 3. **Каскадность и специфичность**&lt;/div&gt;&lt;div&gt;&amp;nbsp; &amp;nbsp;- **Каскадность**: Правила CSS применяются в порядке их определения, с учетом специфичности и важности.&lt;/div&gt;&lt;div&gt;&amp;nbsp; &amp;nbsp;- **Специфичность**: Определяет, какое правило будет применено, если несколько правил конфликтуют.&lt;/div&gt;&lt;div&gt;&amp;nbsp; &amp;nbsp;- **!important**: Используется для принудительного применения стиля.&lt;/div&gt;&lt;div&gt;&lt;br&gt;&lt;/div&gt;&lt;div&gt;### 4. **Box Model**&lt;/div&gt;&lt;div&gt;&amp;nbsp; &amp;nbsp;- **Состав**: `margin`, `border`, `padding`, `content`.&lt;/div&gt;&lt;div&gt;&amp;nbsp; &amp;nbsp;- **Свойства**: `margin`, `border`, `padding`, `width`, `height`, `box-sizing`.&lt;/div&gt;&lt;div&gt;&lt;br&gt;&lt;/div&gt;&lt;div&gt;### 5. **Текст и шрифты**&lt;/div&gt;&lt;div&gt;&amp;nbsp; &amp;nbsp;- **Шрифты**: `font-family`, `font-size`, `font-weight`, `font-style`.&lt;/div&gt;&lt;div&gt;&amp;nbsp; &amp;nbsp;- **Текст**: `color`, `text-align`, `text-decoration`, `text-transform`, `line-height`, `letter-spacing`.&lt;/div&gt;&lt;div&gt;&lt;br&gt;&lt;/div&gt;&lt;div&gt;### 6. **Фоны и границы**&lt;/div&gt;&lt;div&gt;&amp;nbsp; &amp;nbsp;- **Фоны**: `background-color`, `background-image`, `background-repeat`, `background-position`, `background-size`.&lt;/div&gt;&lt;div&gt;&amp;nbsp; &amp;nbsp;- **Границы**: `border`, `border-width`, `border-style`, `border-color`, `border-radius`.&lt;/div&gt;&lt;div&gt;&lt;br&gt;&lt;/div&gt;&lt;div&gt;### 7. **Размеры и выравнивание**&lt;/div&gt;&lt;div&gt;&amp;nbsp; &amp;nbsp;- **Размеры**: `width`, `height`, `min-width`, `max-width`, `min-height`, `max-height`.&lt;/div&gt;&lt;div&gt;&amp;nbsp; &amp;nbsp;- **Выравнивание**: `text-align`, `vertical-align`, `margin: auto`.&lt;/div&gt;&lt;div&gt;&lt;br&gt;&lt;/div&gt;&lt;div&gt;### 8. **Позиционирование**&lt;/div&gt;&lt;div&gt;&amp;nbsp; &amp;nbsp;- **Типы позиционирования**: `static`, `relative`, `absolute`, `fixed`, `sticky`.&lt;/div&gt;&lt;div&gt;&amp;nbsp; &amp;nbsp;- **Свойства**: `top`, `right`, `bottom`, `left`, `z-index`.&lt;/div&gt;&lt;div&gt;&lt;br&gt;&lt;/div&gt;&lt;div&gt;### 9. **Flexbox**&lt;/div&gt;&lt;div&gt;&amp;nbsp; &amp;nbsp;- **Контейнер**: `display: flex`, `flex-direction`, `justify-content`, `align-items`, `flex-wrap`.&lt;/div&gt;&lt;div&gt;&amp;nbsp; &amp;nbsp;- **Элементы**: `order`, `flex-grow`, `flex-shrink`, `flex-basis`, `align-self`.&lt;/div&gt;&lt;div&gt;&lt;br&gt;&lt;/div&gt;&lt;div&gt;### 10. **Grid Layout**&lt;/div&gt;&lt;div&gt;&amp;nbsp; &amp;nbsp;- **Контейнер**: `display: grid`, `grid-template-columns`, `grid-template-rows`, `grid-gap`, `grid-template-areas`.&lt;/div&gt;&lt;div&gt;&amp;nbsp; &amp;nbsp;- **Элементы**: `grid-column`, `grid-row`, `grid-area`.&lt;/div&gt;&lt;div&gt;&lt;br&gt;&lt;/div&gt;&lt;div&gt;### 11. **Анимации и переходы**&lt;/div&gt;&lt;div&gt;&amp;nbsp; &amp;nbsp;- **Переходы**: `transition`, `transition-property`, `transition-duration`, `transition-timing-function`, `transition-delay`.&lt;/div&gt;&lt;div&gt;&amp;nbsp; &amp;nbsp;- **Анимации**: `@keyframes`, `animation`, `animation-name`, `animation-duration`, `animation-timing-function`, `animation-delay`, `animation-iteration-count`, `animation-direction`, `animation-fill-mode`.&lt;/div&gt;&lt;div&gt;&lt;br&gt;&lt;/div&gt;&lt;div&gt;### 12. **Медиазапросы**&lt;/div&gt;&lt;div&gt;&amp;nbsp; &amp;nbsp;- **Синтаксис**: `@media (условие) { правила }`&lt;/div&gt;&lt;div&gt;&amp;nbsp; &amp;nbsp;- **Пример**: `@media (max-width: 600px) { body { background-color: lightblue; } }`&lt;/div&gt;&lt;div&gt;&lt;br&gt;&lt;/div&gt;&lt;div&gt;### 13. **Препроцессоры CSS**&lt;/div&gt;&lt;div&gt;&amp;nbsp; &amp;nbsp;- **SASS/SCSS**: Переменные, вложенные правила, миксины, импорт файлов.&lt;/div&gt;&lt;div&gt;&amp;nbsp; &amp;nbsp;- **LESS**: Переменные, вложенные правила, миксины, функции.&lt;/div&gt;&lt;div&gt;&lt;br&gt;&lt;/div&gt;&lt;div&gt;### 14. **Методологии CSS**&lt;/div&gt;&lt;div&gt;&amp;nbsp; &amp;nbsp;- **BEM (Block, Element, Modifier)**: Структурирование классов для улучшения читаемости и поддержки кода.&lt;/div&gt;&lt;div&gt;&amp;nbsp; &amp;nbsp;- **SMACSS (Scalable and Modular Architecture for CSS)**: Организация CSS-кода для масштабируемости.&lt;/div&gt;&lt;div&gt;&lt;br&gt;&lt;/div&gt;&lt;div&gt;### 15. **Оптимизация и производительность**&lt;/div&gt;&lt;div&gt;&amp;nbsp; &amp;nbsp;- **Минификация**: Удаление пробелов, комментариев и других ненужных символов.&lt;/div&gt;&lt;div&gt;&amp;nbsp; &amp;nbsp;- **Кэширование**: Использование кэширования для уменьшения количества запросов.&lt;/div&gt;&lt;div&gt;&amp;nbsp; &amp;nbsp;- **Сжатие**: Использование gzip или Brotli для сжатия CSS-файлов.&lt;/div&gt;&lt;div&gt;&lt;br&gt;&lt;/div&gt;&lt;div&gt;### 16. **Доступность**&lt;/div&gt;&lt;div&gt;&amp;nbsp; &amp;nbsp;- **Контраст**: Использование достаточного контраста между текстом и фоном.&lt;/div&gt;&lt;div&gt;&amp;nbsp; &amp;nbsp;- **Шрифты**: Использование читаемых шрифтов и размеров.&lt;/div&gt;&lt;div&gt;&amp;nbsp; &amp;nbsp;- **Фокус**: Обеспечение видимости фокуса для интерактивных элементов.&lt;/div&gt;&lt;div&gt;&lt;br&gt;&lt;/div&gt;&lt;div&gt;### 17. **Инструменты и ресурсы**&lt;/div&gt;&lt;div&gt;&amp;nbsp; &amp;nbsp;- **Инструменты разработчика**: Браузерные инструменты для отладки и тестирования CSS.&lt;/div&gt;&lt;div&gt;&amp;nbsp; &amp;nbsp;- **Ресурсы**: W3C, MDN Web Docs, Can I Use, CSS-Tricks.&lt;/div&gt;&lt;div&gt;&lt;br&gt;&lt;/div&gt;&lt;div&gt;Эти пункты охватывают основные аспекты CSS, которые важны для frontend разработчика. Понимание этих концепций поможет вам создавать стильные, отзывчивые и доступные веб-страницы.&lt;/div&gt;" style="rounded=1;whiteSpace=wrap;html=1;fontSize=12;glass=0;strokeWidth=1;shadow=0;" vertex="1" parent="WIyWlLk6GJQsqaUBKTNV-1">
          <mxGeometry x="690" y="720" width="630" height="1410" as="geometry" />
        </mxCell>
        <mxCell id="tXAnvfTIk08DneQXC5Ik-15" value="&lt;h1&gt;Frontend RoadMap&lt;/h1&gt;" style="rounded=1;whiteSpace=wrap;html=1;fontSize=12;glass=0;strokeWidth=1;shadow=0;" vertex="1" parent="WIyWlLk6GJQsqaUBKTNV-1">
          <mxGeometry x="160" y="20" width="940" height="40" as="geometry" />
        </mxCell>
        <mxCell id="tXAnvfTIk08DneQXC5Ik-16" value="&lt;div&gt;&lt;br&gt;&lt;/div&gt;&lt;div&gt;&lt;br&gt;&lt;/div&gt;&lt;div&gt;### 1. **Основы HTML**&lt;/div&gt;&lt;div&gt;&amp;nbsp; &amp;nbsp;- **Структура документа**: HTML-документ состоит из элементов, которые определяются тегами. Основная структура включает `&amp;lt;!DOCTYPE html&amp;gt;`, `&amp;lt;html&amp;gt;`, `&amp;lt;head&amp;gt;`, и `&amp;lt;body&amp;gt;`.&lt;/div&gt;&lt;div&gt;&amp;nbsp; &amp;nbsp;- **Теги и элементы**: Элементы HTML состоят из открывающего тега, содержимого и закрывающего тега (например, `&amp;lt;p&amp;gt;Текст&amp;lt;/p&amp;gt;`).&lt;/div&gt;&lt;div&gt;&lt;br&gt;&lt;/div&gt;&lt;div&gt;### 2. **Семантические теги**&lt;/div&gt;&lt;div&gt;&amp;nbsp; &amp;nbsp;- **Заголовки**: `&amp;lt;h1&amp;gt;` до `&amp;lt;h6&amp;gt;` для создания заголовков разных уровней.&lt;/div&gt;&lt;div&gt;&amp;nbsp; &amp;nbsp;- **Секции**: `&amp;lt;section&amp;gt;`, `&amp;lt;article&amp;gt;`, `&amp;lt;aside&amp;gt;`, `&amp;lt;nav&amp;gt;`, `&amp;lt;header&amp;gt;`, `&amp;lt;footer&amp;gt;`, `&amp;lt;main&amp;gt;` для структурирования контента.&lt;/div&gt;&lt;div&gt;&amp;nbsp; &amp;nbsp;- **Списки**: `&amp;lt;ul&amp;gt;` для неупорядоченных списков, `&amp;lt;ol&amp;gt;` для упорядоченных списков, `&amp;lt;li&amp;gt;` для элементов списка.&lt;/div&gt;&lt;div&gt;&lt;br&gt;&lt;/div&gt;&lt;div&gt;### 3. **Текстовые элементы**&lt;/div&gt;&lt;div&gt;&amp;nbsp; &amp;nbsp;- **Параграфы**: `&amp;lt;p&amp;gt;` для создания абзацев текста.&lt;/div&gt;&lt;div&gt;&amp;nbsp; &amp;nbsp;- **Форматирование текста**: `&amp;lt;strong&amp;gt;` для важного текста, `&amp;lt;em&amp;gt;` для акцентирования, `&amp;lt;br&amp;gt;` для разрыва строки, `&amp;lt;hr&amp;gt;` для горизонтальной линии.&lt;/div&gt;&lt;div&gt;&lt;br&gt;&lt;/div&gt;&lt;div&gt;### 4. **Ссылки и изображения**&lt;/div&gt;&lt;div&gt;&amp;nbsp; &amp;nbsp;- **Ссылки**: `&amp;lt;a href=&quot;URL&quot;&amp;gt;Текст ссылки&amp;lt;/a&amp;gt;` для создания гиперссылок.&lt;/div&gt;&lt;div&gt;&amp;nbsp; &amp;nbsp;- **Изображения**: `&amp;lt;img src=&quot;URL&quot; alt=&quot;Описание&quot;&amp;gt;` для вставки изображений.&lt;/div&gt;&lt;div&gt;&lt;br&gt;&lt;/div&gt;&lt;div&gt;### 5. **Формы**&lt;/div&gt;&lt;div&gt;&amp;nbsp; &amp;nbsp;- **Форма**: `&amp;lt;form&amp;gt;` для создания форм.&lt;/div&gt;&lt;div&gt;&amp;nbsp; &amp;nbsp;- **Элементы формы**: `&amp;lt;input&amp;gt;`, `&amp;lt;textarea&amp;gt;`, `&amp;lt;button&amp;gt;`, `&amp;lt;select&amp;gt;`, `&amp;lt;option&amp;gt;`, `&amp;lt;label&amp;gt;` для различных типов ввода данных.&lt;/div&gt;&lt;div&gt;&lt;br&gt;&lt;/div&gt;&lt;div&gt;### 6. **Таблицы**&lt;/div&gt;&lt;div&gt;&amp;nbsp; &amp;nbsp;- **Таблица**: `&amp;lt;table&amp;gt;`, `&amp;lt;tr&amp;gt;` для строк, `&amp;lt;td&amp;gt;` для ячеек данных, `&amp;lt;th&amp;gt;` для заголовков ячеек.&lt;/div&gt;&lt;div&gt;&amp;nbsp; &amp;nbsp;- **Атрибуты**: `border`, `cellpadding`, `cellspacing` для стилизации таблиц.&lt;/div&gt;&lt;div&gt;&lt;br&gt;&lt;/div&gt;&lt;div&gt;### 7. **Мультимедиа**&lt;/div&gt;&lt;div&gt;&amp;nbsp; &amp;nbsp;- **Аудио и видео**: `&amp;lt;audio&amp;gt;` и `&amp;lt;video&amp;gt;` для вставки аудио и видео файлов.&lt;/div&gt;&lt;div&gt;&amp;nbsp; &amp;nbsp;- **Атрибуты**: `controls`, `autoplay`, `loop` для управления воспроизведением.&lt;/div&gt;&lt;div&gt;&lt;br&gt;&lt;/div&gt;&lt;div&gt;### 8. **Атрибуты и свойства**&lt;/div&gt;&lt;div&gt;&amp;nbsp; &amp;nbsp;- **Общие атрибуты**: `id`, `class`, `style`, `title` для идентификации и стилизации элементов.&lt;/div&gt;&lt;div&gt;&amp;nbsp; &amp;nbsp;- **Специфические атрибуты**: `href` для ссылок, `src` для изображений, `alt` для альтернативного текста изображений.&lt;/div&gt;&lt;div&gt;&lt;br&gt;&lt;/div&gt;&lt;div&gt;### 9. **Доступность**&lt;/div&gt;&lt;div&gt;&amp;nbsp; &amp;nbsp;- **Атрибуты доступности**: `aria-*` атрибуты для улучшения доступности контента для пользователей с ограниченными возможностями.&lt;/div&gt;&lt;div&gt;&amp;nbsp; &amp;nbsp;- **Семантика**: Использование семантических тегов для улучшения доступности и SEO.&lt;/div&gt;&lt;div&gt;&lt;br&gt;&lt;/div&gt;&lt;div&gt;### 10. **Внедрение скриптов и стилей**&lt;/div&gt;&lt;div&gt;&amp;nbsp; &amp;nbsp;- **CSS**: `&amp;lt;link rel=&quot;stylesheet&quot; href=&quot;styles.css&quot;&amp;gt;` для подключения внешних стилей.&lt;/div&gt;&lt;div&gt;&amp;nbsp; &amp;nbsp;- **JavaScript**: `&amp;lt;script src=&quot;script.js&quot;&amp;gt;&amp;lt;/script&amp;gt;` для подключения внешних скриптов.&lt;/div&gt;&lt;div&gt;&lt;br&gt;&lt;/div&gt;&lt;div&gt;### 11. **Метаданные**&lt;/div&gt;&lt;div&gt;&amp;nbsp; &amp;nbsp;- **Мета-теги**: `&amp;lt;meta&amp;gt;` для определения метаданных, таких как кодировка, автор, описание и ключевые слова.&lt;/div&gt;&lt;div&gt;&amp;nbsp; &amp;nbsp;- **Заголовок**: `&amp;lt;title&amp;gt;` для определения заголовка страницы.&lt;/div&gt;&lt;div&gt;&lt;br&gt;&lt;/div&gt;&lt;div&gt;### 12. **Фреймы и iframe**&lt;/div&gt;&lt;div&gt;&amp;nbsp; &amp;nbsp;- **Фреймы**: `&amp;lt;iframe&amp;gt;` для вставки одного HTML-документа в другой.&lt;/div&gt;&lt;div&gt;&amp;nbsp; &amp;nbsp;- **Атрибуты**: `src`, `width`, `height` для управления содержимым и размерами фрейма.&lt;/div&gt;&lt;div&gt;&lt;br&gt;&lt;/div&gt;&lt;div&gt;### 13. **HTML5 Новые элементы и API**&lt;/div&gt;&lt;div&gt;&amp;nbsp; &amp;nbsp;- **Новые элементы**: `&amp;lt;canvas&amp;gt;`, `&amp;lt;figure&amp;gt;`, `&amp;lt;figcaption&amp;gt;`, `&amp;lt;mark&amp;gt;`, `&amp;lt;time&amp;gt;`, `&amp;lt;progress&amp;gt;`, `&amp;lt;meter&amp;gt;`.&lt;/div&gt;&lt;div&gt;&amp;nbsp; &amp;nbsp;- **API**: Geolocation API, Web Storage API, Web Workers API и другие.&lt;/div&gt;&lt;div&gt;&lt;br&gt;&lt;/div&gt;&lt;div&gt;### 14. **Валидация и отладка**&lt;/div&gt;&lt;div&gt;&amp;nbsp; &amp;nbsp;- **Валидация**: Использование инструментов, таких как W3C Validator, для проверки корректности HTML-кода.&lt;/div&gt;&lt;div&gt;&amp;nbsp; &amp;nbsp;- **Отладка**: Использование браузерных инструментов разработчика для отладки и тестирования HTML.&lt;/div&gt;&lt;div&gt;&lt;br&gt;&lt;/div&gt;&lt;div&gt;Эти пункты охватывают основные аспекты HTML, которые важны для frontend разработчика. Понимание этих концепций поможет вам создавать структурированные, доступные и функциональные веб-страницы.&lt;/div&gt;" style="rounded=1;whiteSpace=wrap;html=1;fontSize=12;glass=0;strokeWidth=1;shadow=0;align=center;" vertex="1" parent="WIyWlLk6GJQsqaUBKTNV-1">
          <mxGeometry x="-120" y="220" width="730" height="1040" as="geometry" />
        </mxCell>
      </root>
    </mxGraphModel>
  </diagram>
</mxfile>
